# Blender 5.1.1
# www.blender.org
o Cube
v 0.840637 0.840637 -1.000000
v 0.840637 1.000000 -0.840637
v 1.000000 0.840637 -0.840637
v 0.840637 -1.000000 -0.840637
v 0.840637 -0.840637 -1.000000
v 1.000000 -0.840637 -0.840637
v 1.000000 0.840637 0.840637
v 0.840637 1.000000 0.840637
v 0.840637 0.840637 1.000000
v 1.000000 -0.840637 0.840637
v 0.840637 -0.840637 1.000000
v 0.840637 -1.000000 0.840637
v -0.840637 0.840637 -1.000000
v -1.000000 0.840637 -0.840637
v -0.840637 1.000000 -0.840637
v -1.000000 -0.840637 -0.840637
v -0.840637 -0.840637 -1.000000
v -0.840637 -1.000000 -0.840637
v -1.000000 0.840637 0.840637
v -0.840637 0.840637 1.000000
v -0.840637 1.000000 0.840637
v -0.840637 -1.000000 0.840637
v -0.840637 -0.840637 1.000000
v -1.000000 -0.840637 0.840637
vn 0.3416 0.3416 -0.8756
vn 0.3416 0.8756 -0.3416
vn 0.8756 0.3416 -0.3416
vn 0.3416 -0.8756 -0.3416
vn 0.3416 -0.3416 -0.8756
vn 0.8756 -0.3416 -0.3416
vn 0.8756 0.3416 0.3416
vn 0.3416 0.8756 0.3416
vn 0.3416 0.3416 0.8756
vn 0.8756 -0.3416 0.3416
vn 0.3416 -0.3416 0.8756
vn 0.3416 -0.8756 0.3416
vn -0.3416 0.3416 -0.8756
vn -0.8756 0.3416 -0.3416
vn -0.3416 0.8756 -0.3416
vn -0.8756 -0.3416 -0.3416
vn -0.3416 -0.3416 -0.8756
vn -0.3416 -0.8756 -0.3416
vn -0.8756 0.3416 0.3416
vn -0.3416 0.3416 0.8756
vn -0.3416 0.8756 0.3416
vn -0.3416 -0.8756 0.3416
vn -0.3416 -0.3416 0.8756
vn -0.8756 -0.3416 0.3416
vt 0.605080 0.480080
vt 0.634960 0.500000
vt 0.605080 0.514940
vt 0.355080 0.519920
vt 0.375000 0.490040
vt 0.389940 0.519920
vt 0.605080 0.735060
vt 0.634960 0.750000
vt 0.605080 0.769920
vt 0.389940 0.730080
vt 0.375000 0.759960
vt 0.355080 0.730080
vt 0.605080 0.264940
vt 0.605080 0.230080
vt 0.625000 0.243360
vt 0.125000 0.519920
vt 0.144920 0.500000
vt 0.144920 0.519920
vt 0.605080 0.019920
vt 0.605080 0.000000
vt 0.625000 0.019920
vt 0.144920 0.730080
vt 0.144920 0.750000
vt 0.125000 0.730080
vt 0.394920 0.000000
vt 0.394920 0.019920
vt 0.394920 0.269920
vt 0.394920 0.230080
vt 0.625000 0.980080
vt 0.605080 0.980080
vt 0.855080 0.519920
vt 0.855080 0.730080
vt 0.394920 0.980080
s 1
usemtl Material
f 1/1/1 2/2/2 3/3/3
f 4/4/4 5/5/5 6/6/6
f 7/7/7 8/8/8 9/9/9
f 10/10/10 11/11/11 12/12/12
f 13/13/13 14/14/14 15/15/15
f 16/16/16 17/17/17 18/18/18
f 19/19/19 20/20/20 21/21/21
f 22/22/22 23/23/23 24/24/24
f 18/18/18 22/22/22 24/24/24 16/16/16
f 4/4/4 18/18/18 17/17/17 5/5/5
f 3/3/3 6/6/6 5/5/5 1/1/1
f 23/25/23 20/20/20 19/19/19 24/26/24
f 9/9/9 11/11/11 10/10/10 7/7/7
f 13/13/13 17/27/17 16/28/16 14/14/14
f 8/8/8 21/29/21 20/30/20 9/9/9
f 2/2/2 8/8/8 7/7/7 3/3/3
f 22/22/22 12/12/12 11/11/11 23/23/23
f 21/21/21 15/15/15 14/14/14 19/19/19
f 15/15/15 2/2/2 1/1/1 13/13/13
f 12/12/12 4/4/4 6/6/6 10/10/10
f 17/27/17 13/13/13 1/1/1 5/5/5
f 6/6/6 3/3/3 7/7/7 10/10/10
f 2/2/2 15/31/15 21/32/21 8/8/8
f 18/18/18 4/4/4 12/12/12 22/22/22
f 11/11/11 9/9/9 20/30/20 23/33/23
f 24/26/24 19/19/19 14/14/14 16/28/16
