# Blender 5.0.1
# www.blender.org
mtllib torus.mtl
o Torus
v 3.050000 0.000000 0.000000
v 3.040451 0.029389 0.000000
v 3.015451 0.047553 0.000000
v 2.984549 0.047553 0.000000
v 2.959549 0.029389 0.000000
v 2.950000 0.000000 0.000000
v 2.959549 -0.029389 0.000000
v 2.984549 -0.047553 0.000000
v 3.015451 -0.047553 0.000000
v 3.040451 -0.029389 0.000000
v 3.012449 0.000000 -0.477125
v 3.003018 0.029389 -0.475632
v 2.978326 0.047553 -0.471721
v 2.947804 0.047553 -0.466887
v 2.923112 0.029389 -0.462976
v 2.913681 0.000000 -0.461482
v 2.923112 -0.029389 -0.462976
v 2.947804 -0.047553 -0.466887
v 2.978326 -0.047553 -0.471721
v 3.003018 -0.029389 -0.475632
v 2.900723 0.000000 -0.942501
v 2.891641 0.029389 -0.939551
v 2.867864 0.047553 -0.931825
v 2.838475 0.047553 -0.922276
v 2.814699 0.029389 -0.914551
v 2.805617 0.000000 -0.911600
v 2.814699 -0.029389 -0.914551
v 2.838475 -0.047553 -0.922276
v 2.867864 -0.047553 -0.931825
v 2.891641 -0.029389 -0.939551
v 2.717570 0.000000 -1.384671
v 2.709062 0.029389 -1.380336
v 2.686786 0.047553 -1.368986
v 2.659253 0.047553 -1.354957
v 2.636978 0.029389 -1.343607
v 2.628469 0.000000 -1.339272
v 2.636978 -0.029389 -1.343607
v 2.659253 -0.047553 -1.354957
v 2.686786 -0.047553 -1.368986
v 2.709062 -0.029389 -1.380336
v 2.467502 0.000000 -1.792745
v 2.459776 0.029389 -1.787132
v 2.439551 0.047553 -1.772438
v 2.414551 0.047553 -1.754274
v 2.394325 0.029389 -1.739579
v 2.386600 0.000000 -1.733966
v 2.394325 -0.029389 -1.739579
v 2.414551 -0.047553 -1.754274
v 2.439551 -0.047553 -1.772438
v 2.459776 -0.029389 -1.787132
v 2.156675 0.000000 -2.156676
v 2.149923 0.029389 -2.149924
v 2.132246 0.047553 -2.132246
v 2.110395 0.047553 -2.110395
v 2.092717 0.029389 -2.092717
v 2.085965 0.000000 -2.085965
v 2.092717 -0.029389 -2.092717
v 2.110395 -0.047553 -2.110395
v 2.132246 -0.047553 -2.132246
v 2.149923 -0.029389 -2.149924
v 1.792745 0.000000 -2.467502
v 1.787132 0.029389 -2.459777
v 1.772437 0.047553 -2.439551
v 1.754274 0.047553 -2.414551
v 1.739579 0.029389 -2.394326
v 1.733966 0.000000 -2.386600
v 1.739579 -0.029389 -2.394326
v 1.754274 -0.047553 -2.414551
v 1.772437 -0.047553 -2.439551
v 1.787132 -0.029389 -2.459777
v 1.384672 0.000000 -2.717570
v 1.380337 0.029389 -2.709061
v 1.368987 0.047553 -2.686786
v 1.354958 0.047553 -2.659252
v 1.343608 0.029389 -2.636977
v 1.339273 0.000000 -2.628469
v 1.343608 -0.029389 -2.636977
v 1.354958 -0.047553 -2.659252
v 1.368987 -0.047553 -2.686786
v 1.380337 -0.029389 -2.709061
v 0.942502 0.000000 -2.900722
v 0.939552 0.029389 -2.891640
v 0.931826 0.047553 -2.867864
v 0.922277 0.047553 -2.838475
v 0.914552 0.029389 -2.814698
v 0.911601 0.000000 -2.805617
v 0.914552 -0.029389 -2.814698
v 0.922277 -0.047553 -2.838475
v 0.931826 -0.047553 -2.867864
v 0.939552 -0.029389 -2.891640
v 0.477126 0.000000 -3.012449
v 0.475632 0.029389 -3.003018
v 0.471721 0.047553 -2.978326
v 0.466887 0.047553 -2.947804
v 0.462976 0.029389 -2.923112
v 0.461482 0.000000 -2.913681
v 0.462976 -0.029389 -2.923112
v 0.466887 -0.047553 -2.947804
v 0.471721 -0.047553 -2.978326
v 0.475632 -0.029389 -3.003018
v 0.000000 0.000000 -3.050000
v 0.000000 0.029389 -3.040451
v 0.000000 0.047553 -3.015451
v 0.000000 0.047553 -2.984549
v 0.000000 0.029389 -2.959549
v 0.000000 0.000000 -2.950000
v 0.000000 -0.029389 -2.959549
v 0.000000 -0.047553 -2.984549
v 0.000000 -0.047553 -3.015451
v 0.000000 -0.029389 -3.040451
v -0.477125 0.000000 -3.012450
v -0.475631 0.029389 -3.003018
v -0.471720 0.047553 -2.978326
v -0.466886 0.047553 -2.947804
v -0.462975 0.029389 -2.923112
v -0.461482 0.000000 -2.913681
v -0.462975 -0.029389 -2.923112
v -0.466886 -0.047553 -2.947804
v -0.471720 -0.047553 -2.978326
v -0.475631 -0.029389 -3.003018
v -0.942502 0.000000 -2.900722
v -0.939551 0.029389 -2.891640
v -0.931826 0.047553 -2.867864
v -0.922276 0.047553 -2.838475
v -0.914551 0.029389 -2.814698
v -0.911600 0.000000 -2.805617
v -0.914551 -0.029389 -2.814698
v -0.922276 -0.047553 -2.838475
v -0.931826 -0.047553 -2.867864
v -0.939551 -0.029389 -2.891640
v -1.384671 0.000000 -2.717570
v -1.380336 0.029389 -2.709061
v -1.368986 0.047553 -2.686786
v -1.354957 0.047553 -2.659252
v -1.343608 0.029389 -2.636977
v -1.339272 0.000000 -2.628469
v -1.343608 -0.029389 -2.636977
v -1.354957 -0.047553 -2.659252
v -1.368986 -0.047553 -2.686786
v -1.380336 -0.029389 -2.709061
v -1.792745 0.000000 -2.467501
v -1.787133 0.029389 -2.459776
v -1.772438 0.047553 -2.439551
v -1.754274 0.047553 -2.414551
v -1.739580 0.029389 -2.394325
v -1.733967 0.000000 -2.386600
v -1.739580 -0.029389 -2.394325
v -1.754274 -0.047553 -2.414551
v -1.772438 -0.047553 -2.439551
v -1.787133 -0.029389 -2.459776
v -2.156676 0.000000 -2.156675
v -2.149924 0.029389 -2.149923
v -2.132246 0.047553 -2.132245
v -2.110395 0.047553 -2.110394
v -2.092718 0.029389 -2.092717
v -2.085966 0.000000 -2.085964
v -2.092718 -0.029389 -2.092717
v -2.110395 -0.047553 -2.110394
v -2.132246 -0.047553 -2.132245
v -2.149924 -0.029389 -2.149923
v -2.467502 0.000000 -1.792744
v -2.459777 0.029389 -1.787131
v -2.439552 0.047553 -1.772437
v -2.414551 0.047553 -1.754273
v -2.394326 0.029389 -1.739579
v -2.386601 0.000000 -1.733966
v -2.394326 -0.029389 -1.739579
v -2.414551 -0.047553 -1.754273
v -2.439552 -0.047553 -1.772437
v -2.459777 -0.029389 -1.787131
v -2.717570 0.000000 -1.384671
v -2.709061 0.029389 -1.380336
v -2.686786 0.047553 -1.368986
v -2.659252 0.047553 -1.354957
v -2.636977 0.029389 -1.343607
v -2.628469 0.000000 -1.339272
v -2.636977 -0.029389 -1.343607
v -2.659252 -0.047553 -1.354957
v -2.686786 -0.047553 -1.368986
v -2.709061 -0.029389 -1.380336
v -2.900722 0.000000 -0.942502
v -2.891640 0.029389 -0.939551
v -2.867864 0.047553 -0.931826
v -2.838475 0.047553 -0.922276
v -2.814698 0.029389 -0.914551
v -2.805617 0.000000 -0.911600
v -2.814698 -0.029389 -0.914551
v -2.838475 -0.047553 -0.922276
v -2.867864 -0.047553 -0.931826
v -2.891640 -0.029389 -0.939551
v -3.012450 0.000000 -0.477125
v -3.003018 0.029389 -0.475631
v -2.978326 0.047553 -0.471720
v -2.947804 0.047553 -0.466886
v -2.923112 0.029389 -0.462975
v -2.913681 0.000000 -0.461482
v -2.923112 -0.029389 -0.462975
v -2.947804 -0.047553 -0.466886
v -2.978326 -0.047553 -0.471720
v -3.003018 -0.029389 -0.475631
v -3.050000 0.000000 -0.000000
v -3.040451 0.029389 -0.000000
v -3.015451 0.047553 -0.000000
v -2.984549 0.047553 -0.000000
v -2.959549 0.029389 -0.000000
v -2.950000 0.000000 -0.000000
v -2.959549 -0.029389 -0.000000
v -2.984549 -0.047553 -0.000000
v -3.015451 -0.047553 -0.000000
v -3.040451 -0.029389 -0.000000
v -3.012450 0.000000 0.477124
v -3.003018 0.029389 0.475630
v -2.978326 0.047553 0.471719
v -2.947804 0.047553 0.466885
v -2.923112 0.029389 0.462974
v -2.913681 0.000000 0.461480
v -2.923112 -0.029389 0.462974
v -2.947804 -0.047553 0.466885
v -2.978326 -0.047553 0.471719
v -3.003018 -0.029389 0.475630
v -2.900723 0.000000 0.942501
v -2.891641 0.029389 0.939550
v -2.867865 0.047553 0.931824
v -2.838475 0.047553 0.922275
v -2.814699 0.029389 0.914550
v -2.805617 0.000000 0.911599
v -2.814699 -0.029389 0.914550
v -2.838475 -0.047553 0.922275
v -2.867865 -0.047553 0.931824
v -2.891641 -0.029389 0.939550
v -2.717570 0.000000 1.384670
v -2.709062 0.029389 1.380335
v -2.686787 0.047553 1.368985
v -2.659253 0.047553 1.354956
v -2.636978 0.029389 1.343606
v -2.628470 0.000000 1.339271
v -2.636978 -0.029389 1.343606
v -2.659253 -0.047553 1.354956
v -2.686787 -0.047553 1.368985
v -2.709062 -0.029389 1.380335
v -2.467502 0.000000 1.792744
v -2.459777 0.029389 1.787131
v -2.439552 0.047553 1.772437
v -2.414551 0.047553 1.754273
v -2.394326 0.029389 1.739579
v -2.386601 0.000000 1.733966
v -2.394326 -0.029389 1.739579
v -2.414551 -0.047553 1.754273
v -2.439552 -0.047553 1.772437
v -2.459777 -0.029389 1.787131
v -2.156676 0.000000 2.156675
v -2.149924 0.029389 2.149923
v -2.132246 0.047553 2.132245
v -2.110395 0.047553 2.110394
v -2.092718 0.029389 2.092717
v -2.085966 0.000000 2.085964
v -2.092718 -0.029389 2.092717
v -2.110395 -0.047553 2.110394
v -2.132246 -0.047553 2.132245
v -2.149924 -0.029389 2.149923
v -1.792745 0.000000 2.467501
v -1.787133 0.029389 2.459776
v -1.772438 0.047553 2.439551
v -1.754274 0.047553 2.414551
v -1.739580 0.029389 2.394325
v -1.733967 0.000000 2.386600
v -1.739580 -0.029389 2.394325
v -1.754274 -0.047553 2.414551
v -1.772438 -0.047553 2.439551
v -1.787133 -0.029389 2.459776
v -1.384671 0.000000 2.717570
v -1.380336 0.029389 2.709061
v -1.368986 0.047553 2.686786
v -1.354957 0.047553 2.659252
v -1.343608 0.029389 2.636977
v -1.339272 0.000000 2.628469
v -1.343608 -0.029389 2.636977
v -1.354957 -0.047553 2.659252
v -1.368986 -0.047553 2.686786
v -1.380336 -0.029389 2.709061
v -0.942502 0.000000 2.900722
v -0.939551 0.029389 2.891640
v -0.931826 0.047553 2.867864
v -0.922276 0.047553 2.838475
v -0.914551 0.029389 2.814698
v -0.911600 0.000000 2.805617
v -0.914551 -0.029389 2.814698
v -0.922276 -0.047553 2.838475
v -0.931826 -0.047553 2.867864
v -0.939551 -0.029389 2.891640
v -0.477125 0.000000 3.012450
v -0.475631 0.029389 3.003018
v -0.471720 0.047553 2.978326
v -0.466886 0.047553 2.947804
v -0.462975 0.029389 2.923112
v -0.461482 0.000000 2.913681
v -0.462975 -0.029389 2.923112
v -0.466886 -0.047553 2.947804
v -0.471720 -0.047553 2.978326
v -0.475631 -0.029389 3.003018
v 0.000000 0.000000 3.050000
v 0.000000 0.029389 3.040451
v 0.000000 0.047553 3.015451
v 0.000000 0.047553 2.984549
v 0.000000 0.029389 2.959549
v 0.000000 0.000000 2.950000
v 0.000000 -0.029389 2.959549
v 0.000000 -0.047553 2.984549
v 0.000000 -0.047553 3.015451
v 0.000000 -0.029389 3.040451
v 0.477126 0.000000 3.012449
v 0.475632 0.029389 3.003018
v 0.471721 0.047553 2.978326
v 0.466887 0.047553 2.947804
v 0.462976 0.029389 2.923112
v 0.461482 0.000000 2.913681
v 0.462976 -0.029389 2.923112
v 0.466887 -0.047553 2.947804
v 0.471721 -0.047553 2.978326
v 0.475632 -0.029389 3.003018
v 0.942502 0.000000 2.900722
v 0.939552 0.029389 2.891640
v 0.931826 0.047553 2.867864
v 0.922277 0.047553 2.838475
v 0.914552 0.029389 2.814698
v 0.911601 0.000000 2.805617
v 0.914552 -0.029389 2.814698
v 0.922277 -0.047553 2.838475
v 0.931826 -0.047553 2.867864
v 0.939552 -0.029389 2.891640
v 1.384672 0.000000 2.717570
v 1.380337 0.029389 2.709061
v 1.368987 0.047553 2.686786
v 1.354958 0.047553 2.659252
v 1.343608 0.029389 2.636977
v 1.339273 0.000000 2.628469
v 1.343608 -0.029389 2.636977
v 1.354958 -0.047553 2.659252
v 1.368987 -0.047553 2.686786
v 1.380337 -0.029389 2.709061
v 1.792744 0.000000 2.467503
v 1.787131 0.029389 2.459778
v 1.772436 0.047553 2.439552
v 1.754272 0.047553 2.414552
v 1.739578 0.029389 2.394327
v 1.733965 0.000000 2.386601
v 1.739578 -0.029389 2.394327
v 1.754272 -0.047553 2.414552
v 1.772436 -0.047553 2.439552
v 1.787131 -0.029389 2.459778
v 2.156675 0.000000 2.156677
v 2.149922 0.029389 2.149925
v 2.132245 0.047553 2.132247
v 2.110394 0.047553 2.110396
v 2.092716 0.029389 2.092719
v 2.085964 0.000000 2.085966
v 2.092716 -0.029389 2.092719
v 2.110394 -0.047553 2.110396
v 2.132245 -0.047553 2.132247
v 2.149922 -0.029389 2.149925
v 2.467501 0.000000 1.792746
v 2.459775 0.029389 1.787133
v 2.439550 0.047553 1.772439
v 2.414550 0.047553 1.754275
v 2.394325 0.029389 1.739581
v 2.386599 0.000000 1.733968
v 2.394325 -0.029389 1.739581
v 2.414550 -0.047553 1.754275
v 2.439550 -0.047553 1.772439
v 2.459775 -0.029389 1.787133
v 2.717569 0.000000 1.384672
v 2.709061 0.029389 1.380337
v 2.686786 0.047553 1.368987
v 2.659252 0.047553 1.354958
v 2.636977 0.029389 1.343608
v 2.628469 0.000000 1.339273
v 2.636977 -0.029389 1.343608
v 2.659252 -0.047553 1.354958
v 2.686786 -0.047553 1.368987
v 2.709061 -0.029389 1.380337
v 2.900722 0.000000 0.942503
v 2.891640 0.029389 0.939552
v 2.867864 0.047553 0.931827
v 2.838475 0.047553 0.922277
v 2.814698 0.029389 0.914552
v 2.805616 0.000000 0.911601
v 2.814698 -0.029389 0.914552
v 2.838475 -0.047553 0.922277
v 2.867864 -0.047553 0.931827
v 2.891640 -0.029389 0.939552
v 3.012449 0.000000 0.477126
v 3.003018 0.029389 0.475632
v 2.978326 0.047553 0.471721
v 2.947804 0.047553 0.466887
v 2.923112 0.029389 0.462976
v 2.913681 0.000000 0.461483
v 2.923112 -0.029389 0.462976
v 2.947804 -0.047553 0.466887
v 2.978326 -0.047553 0.471721
v 3.003018 -0.029389 0.475632
vn 0.9484 0.3082 -0.0746
vn 0.5872 0.8082 -0.0462
vn -0.0000 1.0000 -0.0000
vn -0.5872 0.8082 0.0462
vn -0.9484 0.3082 0.0746
vn -0.9484 -0.3082 0.0746
vn -0.5872 -0.8082 0.0462
vn -0.0000 -1.0000 -0.0000
vn 0.5872 -0.8082 -0.0462
vn 0.9484 -0.3082 -0.0746
vn 0.9251 0.3082 -0.2221
vn 0.5727 0.8082 -0.1375
vn -0.5727 0.8082 0.1375
vn -0.9251 0.3082 0.2221
vn -0.9251 -0.3082 0.2221
vn -0.5727 -0.8082 0.1375
vn 0.5727 -0.8082 -0.1375
vn 0.9251 -0.3082 -0.2221
vn 0.8789 0.3082 -0.3641
vn 0.5441 0.8082 -0.2254
vn -0.5441 0.8082 0.2254
vn -0.8789 0.3082 0.3641
vn -0.8789 -0.3082 0.3641
vn -0.5441 -0.8082 0.2254
vn 0.5441 -0.8082 -0.2254
vn 0.8789 -0.3082 -0.3641
vn 0.8111 0.3082 -0.4971
vn 0.5022 0.8082 -0.3077
vn -0.5022 0.8082 0.3077
vn -0.8111 0.3082 0.4971
vn -0.8111 -0.3082 0.4971
vn -0.5022 -0.8082 0.3077
vn 0.5022 -0.8082 -0.3077
vn 0.8111 -0.3082 -0.4971
vn 0.7234 0.3082 -0.6178
vn 0.4479 0.8081 -0.3825
vn -0.4479 0.8082 0.3825
vn -0.7234 0.3082 0.6178
vn -0.7234 -0.3082 0.6178
vn -0.4479 -0.8082 0.3825
vn 0.4479 -0.8081 -0.3825
vn 0.7234 -0.3082 -0.6178
vn 0.6178 0.3082 -0.7234
vn 0.3825 0.8082 -0.4479
vn -0.3825 0.8082 0.4479
vn -0.6178 0.3082 0.7234
vn -0.6178 -0.3082 0.7234
vn -0.3825 -0.8082 0.4479
vn 0.3825 -0.8082 -0.4479
vn 0.6178 -0.3082 -0.7234
vn 0.4971 0.3082 -0.8111
vn 0.3077 0.8082 -0.5022
vn -0.3077 0.8082 0.5022
vn -0.4971 0.3082 0.8111
vn -0.4971 -0.3082 0.8111
vn -0.3077 -0.8082 0.5022
vn 0.3077 -0.8082 -0.5022
vn 0.4971 -0.3082 -0.8111
vn 0.3641 0.3082 -0.8789
vn 0.2254 0.8081 -0.5441
vn -0.2254 0.8082 0.5441
vn -0.3641 0.3082 0.8789
vn -0.3641 -0.3082 0.8789
vn -0.2254 -0.8082 0.5441
vn 0.2254 -0.8081 -0.5441
vn 0.3641 -0.3082 -0.8789
vn 0.2221 0.3082 -0.9251
vn 0.1375 0.8082 -0.5727
vn -0.1375 0.8081 0.5727
vn -0.2221 0.3082 0.9251
vn -0.2221 -0.3082 0.9251
vn -0.1375 -0.8081 0.5727
vn 0.1375 -0.8082 -0.5727
vn 0.2221 -0.3082 -0.9251
vn 0.0746 0.3082 -0.9484
vn 0.0462 0.8082 -0.5872
vn -0.0462 0.8081 0.5872
vn -0.0746 0.3082 0.9484
vn -0.0746 -0.3082 0.9484
vn -0.0462 -0.8081 0.5872
vn 0.0462 -0.8082 -0.5872
vn 0.0746 -0.3082 -0.9484
vn -0.0746 0.3082 -0.9484
vn -0.0462 0.8081 -0.5872
vn 0.0462 0.8082 0.5872
vn 0.0746 0.3082 0.9484
vn 0.0746 -0.3082 0.9484
vn 0.0462 -0.8082 0.5872
vn -0.0462 -0.8081 -0.5872
vn -0.0746 -0.3082 -0.9484
vn -0.2221 0.3082 -0.9250
vn -0.1375 0.8081 -0.5727
vn 0.1375 0.8082 0.5727
vn 0.2221 0.3082 0.9250
vn 0.2221 -0.3082 0.9250
vn 0.1375 -0.8082 0.5727
vn -0.1375 -0.8081 -0.5727
vn -0.2221 -0.3082 -0.9250
vn -0.3641 0.3082 -0.8789
vn -0.2254 0.8082 -0.5441
vn 0.2254 0.8081 0.5441
vn 0.3641 0.3082 0.8789
vn 0.3641 -0.3082 0.8789
vn 0.2254 -0.8081 0.5441
vn -0.2254 -0.8082 -0.5441
vn -0.3641 -0.3082 -0.8789
vn -0.4971 0.3081 -0.8111
vn -0.3077 0.8082 -0.5022
vn 0.3077 0.8082 0.5022
vn 0.4971 0.3082 0.8111
vn 0.4971 -0.3082 0.8111
vn 0.3077 -0.8082 0.5022
vn -0.3077 -0.8082 -0.5022
vn -0.4971 -0.3081 -0.8111
vn -0.6178 0.3082 -0.7234
vn -0.3825 0.8081 -0.4479
vn 0.3825 0.8082 0.4479
vn 0.6178 0.3082 0.7234
vn 0.6178 -0.3082 0.7234
vn 0.3825 -0.8082 0.4479
vn -0.3825 -0.8081 -0.4479
vn -0.6178 -0.3082 -0.7234
vn -0.7234 0.3082 -0.6178
vn -0.4479 0.8081 -0.3825
vn 0.4479 0.8081 0.3825
vn 0.7234 0.3082 0.6178
vn 0.7234 -0.3082 0.6178
vn 0.4479 -0.8081 0.3825
vn -0.4479 -0.8082 -0.3825
vn -0.7234 -0.3082 -0.6178
vn -0.8111 0.3082 -0.4971
vn -0.5022 0.8082 -0.3077
vn 0.5022 0.8082 0.3077
vn 0.8111 0.3082 0.4971
vn 0.8111 -0.3082 0.4971
vn 0.5022 -0.8082 0.3077
vn -0.5022 -0.8082 -0.3077
vn -0.8111 -0.3082 -0.4971
vn -0.8789 0.3082 -0.3641
vn -0.5441 0.8082 -0.2254
vn 0.5441 0.8082 0.2254
vn 0.8789 0.3082 0.3641
vn 0.8789 -0.3082 0.3641
vn 0.5441 -0.8082 0.2254
vn -0.5441 -0.8082 -0.2254
vn -0.8789 -0.3082 -0.3641
vn -0.9251 0.3082 -0.2221
vn -0.5727 0.8082 -0.1375
vn 0.5727 0.8082 0.1375
vn 0.9251 0.3082 0.2221
vn 0.9251 -0.3082 0.2221
vn 0.5727 -0.8082 0.1375
vn -0.5727 -0.8082 -0.1375
vn -0.9251 -0.3082 -0.2221
vn -0.9484 0.3082 -0.0746
vn -0.5872 0.8082 -0.0462
vn 0.5872 0.8082 0.0462
vn 0.9484 0.3082 0.0746
vn 0.9484 -0.3082 0.0746
vn 0.5872 -0.8082 0.0462
vn -0.5872 -0.8082 -0.0462
vn -0.9484 -0.3082 -0.0746
vn -0.4479 -0.8081 0.3825
vn -0.3825 0.8081 0.4479
vn -0.3825 -0.8081 0.4479
vn -0.4971 0.3081 0.8111
vn 0.4971 0.3081 -0.8111
vn 0.4971 -0.3081 -0.8111
vn -0.4971 -0.3081 0.8111
vn -0.2221 0.3082 0.9250
vn 0.2221 0.3082 -0.9250
vn 0.2221 -0.3082 -0.9250
vn -0.2221 -0.3082 0.9250
vn 0.2221 0.3082 0.9251
vn -0.2221 0.3082 -0.9251
vn -0.2221 -0.3082 -0.9251
vn 0.2221 -0.3082 0.9251
vn -0.4971 0.3082 -0.8111
vn -0.4971 -0.3082 -0.8111
vn -0.3825 0.8082 -0.4479
vn -0.3825 -0.8082 -0.4479
vn 0.4479 0.8082 0.3825
vn -0.4479 0.8082 -0.3825
vn 0.4479 -0.8082 0.3825
vt 0.525000 0.600000
vt 0.550000 0.600000
vt 0.550000 0.700000
vt 0.525000 0.700000
vt 0.550000 0.800000
vt 0.525000 0.800000
vt 0.550000 0.900000
vt 0.525000 0.900000
vt 0.550000 1.000000
vt 0.525000 1.000000
vt 0.525000 -0.000000
vt 0.550000 -0.000000
vt 0.550000 0.100000
vt 0.525000 0.100000
vt 0.550000 0.200000
vt 0.525000 0.200000
vt 0.550000 0.300000
vt 0.525000 0.300000
vt 0.550000 0.400000
vt 0.525000 0.400000
vt 0.550000 0.500000
vt 0.525000 0.500000
vt 0.575000 0.600000
vt 0.575000 0.700000
vt 0.575000 0.800000
vt 0.575000 0.900000
vt 0.575000 1.000000
vt 0.575000 -0.000000
vt 0.575000 0.100000
vt 0.575000 0.200000
vt 0.575000 0.300000
vt 0.575000 0.400000
vt 0.575000 0.500000
vt 0.600000 0.600000
vt 0.600000 0.700000
vt 0.600000 0.800000
vt 0.600000 0.900000
vt 0.600000 1.000000
vt 0.600000 -0.000000
vt 0.600000 0.100000
vt 0.600000 0.200000
vt 0.600000 0.300000
vt 0.600000 0.400000
vt 0.600000 0.500000
vt 0.625000 0.600000
vt 0.625000 0.700000
vt 0.625000 0.800000
vt 0.625000 0.900000
vt 0.625000 1.000000
vt 0.625000 -0.000000
vt 0.625000 0.100000
vt 0.625000 0.200000
vt 0.625000 0.300000
vt 0.625000 0.400000
vt 0.625000 0.500000
vt 0.650000 0.600000
vt 0.650000 0.700000
vt 0.650000 0.800000
vt 0.650000 0.900000
vt 0.650000 1.000000
vt 0.650000 -0.000000
vt 0.650000 0.100000
vt 0.650000 0.200000
vt 0.650000 0.300000
vt 0.650000 0.400000
vt 0.650000 0.500000
vt 0.675000 0.600000
vt 0.675000 0.700000
vt 0.675000 0.800000
vt 0.675000 0.900000
vt 0.675000 1.000000
vt 0.675000 -0.000000
vt 0.675000 0.100000
vt 0.675000 0.200000
vt 0.675000 0.300000
vt 0.675000 0.400000
vt 0.675000 0.500000
vt 0.700000 0.600000
vt 0.700000 0.700000
vt 0.700000 0.800000
vt 0.700000 0.900000
vt 0.700000 1.000000
vt 0.700000 -0.000000
vt 0.700000 0.100000
vt 0.700000 0.200000
vt 0.700000 0.300000
vt 0.700000 0.400000
vt 0.700000 0.500000
vt 0.725000 0.600000
vt 0.725000 0.700000
vt 0.725000 0.800000
vt 0.725000 0.900000
vt 0.725000 1.000000
vt 0.725000 -0.000000
vt 0.725000 0.100000
vt 0.725000 0.200000
vt 0.725000 0.300000
vt 0.725000 0.400000
vt 0.725000 0.500000
vt 0.750000 0.600000
vt 0.750000 0.700000
vt 0.750000 0.800000
vt 0.750000 0.900000
vt 0.750000 1.000000
vt 0.750000 -0.000000
vt 0.750000 0.100000
vt 0.750000 0.200000
vt 0.750000 0.300000
vt 0.750000 0.400000
vt 0.750000 0.500000
vt 0.775000 0.600000
vt 0.775000 0.700000
vt 0.775000 0.800000
vt 0.775000 0.900000
vt 0.775000 1.000000
vt 0.775000 -0.000000
vt 0.775000 0.100000
vt 0.775000 0.200000
vt 0.775000 0.300000
vt 0.775000 0.400000
vt 0.775000 0.500000
vt 0.800000 0.600000
vt 0.800000 0.700000
vt 0.800000 0.800000
vt 0.800000 0.900000
vt 0.800000 1.000000
vt 0.800000 -0.000000
vt 0.800000 0.100000
vt 0.800000 0.200000
vt 0.800000 0.300000
vt 0.800000 0.400000
vt 0.800000 0.500000
vt 0.825000 0.600000
vt 0.825000 0.700000
vt 0.825000 0.800000
vt 0.825000 0.900000
vt 0.825000 1.000000
vt 0.825000 -0.000000
vt 0.825000 0.100000
vt 0.825000 0.200000
vt 0.825000 0.300000
vt 0.825000 0.400000
vt 0.825000 0.500000
vt 0.850000 0.600000
vt 0.850000 0.700000
vt 0.850000 0.800000
vt 0.850000 0.900000
vt 0.850000 1.000000
vt 0.850000 -0.000000
vt 0.850000 0.100000
vt 0.850000 0.200000
vt 0.850000 0.300000
vt 0.850000 0.400000
vt 0.850000 0.500000
vt 0.875000 0.600000
vt 0.875000 0.700000
vt 0.875000 0.800000
vt 0.875000 0.900000
vt 0.875000 1.000000
vt 0.875000 -0.000000
vt 0.875000 0.100000
vt 0.875000 0.200000
vt 0.875000 0.300000
vt 0.875000 0.400000
vt 0.875000 0.500000
vt 0.900000 0.600000
vt 0.900000 0.700000
vt 0.900000 0.800000
vt 0.900000 0.900000
vt 0.900000 1.000000
vt 0.900000 -0.000000
vt 0.900000 0.100000
vt 0.900000 0.200000
vt 0.900000 0.300000
vt 0.900000 0.400000
vt 0.900000 0.500000
vt 0.925000 0.600000
vt 0.925000 0.700000
vt 0.925000 0.800000
vt 0.925000 0.900000
vt 0.925000 1.000000
vt 0.925000 -0.000000
vt 0.925000 0.100000
vt 0.925000 0.200000
vt 0.925000 0.300000
vt 0.925000 0.400000
vt 0.925000 0.500000
vt 0.950000 0.600000
vt 0.950000 0.700000
vt 0.950000 0.800000
vt 0.950000 0.900000
vt 0.950000 1.000000
vt 0.950000 -0.000000
vt 0.950000 0.100000
vt 0.950000 0.200000
vt 0.950000 0.300000
vt 0.950000 0.400000
vt 0.950000 0.500000
vt 0.975000 0.600000
vt 0.975000 0.700000
vt 0.975000 0.800000
vt 0.975000 0.900000
vt 0.975000 1.000000
vt 0.975000 -0.000000
vt 0.975000 0.100000
vt 0.975000 0.200000
vt 0.975000 0.300000
vt 0.975000 0.400000
vt 0.975000 0.500000
vt 1.000000 0.600000
vt 1.000000 0.700000
vt 1.000000 0.800000
vt 1.000000 0.900000
vt 1.000000 1.000000
vt 1.000000 -0.000000
vt 1.000000 0.100000
vt 1.000000 0.200000
vt 1.000000 0.300000
vt 1.000000 0.400000
vt 1.000000 0.500000
vt 0.000000 0.600000
vt 0.025000 0.600000
vt 0.025000 0.700000
vt 0.000000 0.700000
vt 0.025000 0.800000
vt 0.000000 0.800000
vt 0.025000 0.900000
vt 0.000000 0.900000
vt 0.025000 1.000000
vt 0.000000 1.000000
vt 0.000000 -0.000000
vt 0.025000 -0.000000
vt 0.025000 0.100000
vt 0.000000 0.100000
vt 0.025000 0.200000
vt 0.000000 0.200000
vt 0.025000 0.300000
vt 0.000000 0.300000
vt 0.025000 0.400000
vt 0.000000 0.400000
vt 0.025000 0.500000
vt 0.000000 0.500000
vt 0.050000 0.600000
vt 0.050000 0.700000
vt 0.050000 0.800000
vt 0.050000 0.900000
vt 0.050000 1.000000
vt 0.050000 -0.000000
vt 0.050000 0.100000
vt 0.050000 0.200000
vt 0.050000 0.300000
vt 0.050000 0.400000
vt 0.050000 0.500000
vt 0.075000 0.600000
vt 0.075000 0.700000
vt 0.075000 0.800000
vt 0.075000 0.900000
vt 0.075000 1.000000
vt 0.075000 -0.000000
vt 0.075000 0.100000
vt 0.075000 0.200000
vt 0.075000 0.300000
vt 0.075000 0.400000
vt 0.075000 0.500000
vt 0.100000 0.600000
vt 0.100000 0.700000
vt 0.100000 0.800000
vt 0.100000 0.900000
vt 0.100000 1.000000
vt 0.100000 -0.000000
vt 0.100000 0.100000
vt 0.100000 0.200000
vt 0.100000 0.300000
vt 0.100000 0.400000
vt 0.100000 0.500000
vt 0.125000 0.600000
vt 0.125000 0.700000
vt 0.125000 0.800000
vt 0.125000 0.900000
vt 0.125000 1.000000
vt 0.125000 -0.000000
vt 0.125000 0.100000
vt 0.125000 0.200000
vt 0.125000 0.300000
vt 0.125000 0.400000
vt 0.125000 0.500000
vt 0.150000 0.600000
vt 0.150000 0.700000
vt 0.150000 0.800000
vt 0.150000 0.900000
vt 0.150000 1.000000
vt 0.150000 -0.000000
vt 0.150000 0.100000
vt 0.150000 0.200000
vt 0.150000 0.300000
vt 0.150000 0.400000
vt 0.150000 0.500000
vt 0.175000 0.600000
vt 0.175000 0.700000
vt 0.175000 0.800000
vt 0.175000 0.900000
vt 0.175000 1.000000
vt 0.175000 -0.000000
vt 0.175000 0.100000
vt 0.175000 0.200000
vt 0.175000 0.300000
vt 0.175000 0.400000
vt 0.175000 0.500000
vt 0.200000 0.600000
vt 0.200000 0.700000
vt 0.200000 0.800000
vt 0.200000 0.900000
vt 0.200000 1.000000
vt 0.200000 -0.000000
vt 0.200000 0.100000
vt 0.200000 0.200000
vt 0.200000 0.300000
vt 0.200000 0.400000
vt 0.200000 0.500000
vt 0.225000 0.600000
vt 0.225000 0.700000
vt 0.225000 0.800000
vt 0.225000 0.900000
vt 0.225000 1.000000
vt 0.225000 -0.000000
vt 0.225000 0.100000
vt 0.225000 0.200000
vt 0.225000 0.300000
vt 0.225000 0.400000
vt 0.225000 0.500000
vt 0.250000 0.600000
vt 0.250000 0.700000
vt 0.250000 0.800000
vt 0.250000 0.900000
vt 0.250000 1.000000
vt 0.250000 -0.000000
vt 0.250000 0.100000
vt 0.250000 0.200000
vt 0.250000 0.300000
vt 0.250000 0.400000
vt 0.250000 0.500000
vt 0.275000 0.600000
vt 0.275000 0.700000
vt 0.275000 0.800000
vt 0.275000 0.900000
vt 0.275000 1.000000
vt 0.275000 -0.000000
vt 0.275000 0.100000
vt 0.275000 0.200000
vt 0.275000 0.300000
vt 0.275000 0.400000
vt 0.275000 0.500000
vt 0.300000 0.600000
vt 0.300000 0.700000
vt 0.300000 0.800000
vt 0.300000 0.900000
vt 0.300000 1.000000
vt 0.300000 -0.000000
vt 0.300000 0.100000
vt 0.300000 0.200000
vt 0.300000 0.300000
vt 0.300000 0.400000
vt 0.300000 0.500000
vt 0.325000 0.600000
vt 0.325000 0.700000
vt 0.325000 0.800000
vt 0.325000 0.900000
vt 0.325000 1.000000
vt 0.325000 -0.000000
vt 0.325000 0.100000
vt 0.325000 0.200000
vt 0.325000 0.300000
vt 0.325000 0.400000
vt 0.325000 0.500000
vt 0.350000 0.600000
vt 0.350000 0.700000
vt 0.350000 0.800000
vt 0.350000 0.900000
vt 0.350000 1.000000
vt 0.350000 -0.000000
vt 0.350000 0.100000
vt 0.350000 0.200000
vt 0.350000 0.300000
vt 0.350000 0.400000
vt 0.350000 0.500000
vt 0.375000 0.600000
vt 0.375000 0.700000
vt 0.375000 0.800000
vt 0.375000 0.900000
vt 0.375000 1.000000
vt 0.375000 -0.000000
vt 0.375000 0.100000
vt 0.375000 0.200000
vt 0.375000 0.300000
vt 0.375000 0.400000
vt 0.375000 0.500000
vt 0.400000 0.600000
vt 0.400000 0.700000
vt 0.400000 0.800000
vt 0.400000 0.900000
vt 0.400000 1.000000
vt 0.400000 -0.000000
vt 0.400000 0.100000
vt 0.400000 0.200000
vt 0.400000 0.300000
vt 0.400000 0.400000
vt 0.400000 0.500000
vt 0.425000 0.600000
vt 0.425000 0.700000
vt 0.425000 0.800000
vt 0.425000 0.900000
vt 0.425000 1.000000
vt 0.425000 -0.000000
vt 0.425000 0.100000
vt 0.425000 0.200000
vt 0.425000 0.300000
vt 0.425000 0.400000
vt 0.425000 0.500000
vt 0.450000 0.600000
vt 0.450000 0.700000
vt 0.450000 0.800000
vt 0.450000 0.900000
vt 0.450000 1.000000
vt 0.450000 -0.000000
vt 0.450000 0.100000
vt 0.450000 0.200000
vt 0.450000 0.300000
vt 0.450000 0.400000
vt 0.450000 0.500000
vt 0.475000 0.600000
vt 0.475000 0.700000
vt 0.475000 0.800000
vt 0.475000 0.900000
vt 0.475000 1.000000
vt 0.475000 -0.000000
vt 0.475000 0.100000
vt 0.475000 0.200000
vt 0.475000 0.300000
vt 0.475000 0.400000
vt 0.475000 0.500000
vt 0.500000 0.600000
vt 0.500000 0.700000
vt 0.500000 0.800000
vt 0.500000 0.900000
vt 0.500000 1.000000
vt 0.500000 -0.000000
vt 0.500000 0.100000
vt 0.500000 0.200000
vt 0.500000 0.300000
vt 0.500000 0.400000
vt 0.500000 0.500000
s 0
f 1/1/1 11/2/1 12/3/1 2/4/1
f 2/4/2 12/3/2 13/5/2 3/6/2
f 3/6/3 13/5/3 14/7/3 4/8/3
f 4/8/4 14/7/4 15/9/4 5/10/4
f 5/11/5 15/12/5 16/13/5 6/14/5
f 6/14/6 16/13/6 17/15/6 7/16/6
f 7/16/7 17/15/7 18/17/7 8/18/7
f 8/18/8 18/17/8 19/19/8 9/20/8
f 9/20/9 19/19/9 20/21/9 10/22/9
f 10/22/10 20/21/10 11/2/10 1/1/10
f 11/2/11 21/23/11 22/24/11 12/3/11
f 12/3/12 22/24/12 23/25/12 13/5/12
f 13/5/3 23/25/3 24/26/3 14/7/3
f 14/7/13 24/26/13 25/27/13 15/9/13
f 15/12/14 25/28/14 26/29/14 16/13/14
f 16/13/15 26/29/15 27/30/15 17/15/15
f 17/15/16 27/30/16 28/31/16 18/17/16
f 18/17/8 28/31/8 29/32/8 19/19/8
f 19/19/17 29/32/17 30/33/17 20/21/17
f 20/21/18 30/33/18 21/23/18 11/2/18
f 21/23/19 31/34/19 32/35/19 22/24/19
f 22/24/20 32/35/20 33/36/20 23/25/20
f 23/25/3 33/36/3 34/37/3 24/26/3
f 24/26/21 34/37/21 35/38/21 25/27/21
f 25/28/22 35/39/22 36/40/22 26/29/22
f 26/29/23 36/40/23 37/41/23 27/30/23
f 27/30/24 37/41/24 38/42/24 28/31/24
f 28/31/8 38/42/8 39/43/8 29/32/8
f 29/32/25 39/43/25 40/44/25 30/33/25
f 30/33/26 40/44/26 31/34/26 21/23/26
f 31/34/27 41/45/27 42/46/27 32/35/27
f 32/35/28 42/46/28 43/47/28 33/36/28
f 33/36/3 43/47/3 44/48/3 34/37/3
f 34/37/29 44/48/29 45/49/29 35/38/29
f 35/39/30 45/50/30 46/51/30 36/40/30
f 36/40/31 46/51/31 47/52/31 37/41/31
f 37/41/32 47/52/32 48/53/32 38/42/32
f 38/42/8 48/53/8 49/54/8 39/43/8
f 39/43/33 49/54/33 50/55/33 40/44/33
f 40/44/34 50/55/34 41/45/34 31/34/34
f 41/45/35 51/56/35 52/57/35 42/46/35
f 42/46/36 52/57/36 53/58/36 43/47/36
f 43/47/3 53/58/3 54/59/3 44/48/3
f 44/48/37 54/59/37 55/60/37 45/49/37
f 45/50/38 55/61/38 56/62/38 46/51/38
f 46/51/39 56/62/39 57/63/39 47/52/39
f 47/52/40 57/63/40 58/64/40 48/53/40
f 48/53/8 58/64/8 59/65/8 49/54/8
f 49/54/41 59/65/41 60/66/41 50/55/41
f 50/55/42 60/66/42 51/56/42 41/45/42
f 51/56/43 61/67/43 62/68/43 52/57/43
f 52/57/44 62/68/44 63/69/44 53/58/44
f 53/58/3 63/69/3 64/70/3 54/59/3
f 54/59/45 64/70/45 65/71/45 55/60/45
f 55/61/46 65/72/46 66/73/46 56/62/46
f 56/62/47 66/73/47 67/74/47 57/63/47
f 57/63/48 67/74/48 68/75/48 58/64/48
f 58/64/8 68/75/8 69/76/8 59/65/8
f 59/65/49 69/76/49 70/77/49 60/66/49
f 60/66/50 70/77/50 61/67/50 51/56/50
f 61/67/51 71/78/51 72/79/51 62/68/51
f 62/68/52 72/79/52 73/80/52 63/69/52
f 63/69/3 73/80/3 74/81/3 64/70/3
f 64/70/53 74/81/53 75/82/53 65/71/53
f 65/72/54 75/83/54 76/84/54 66/73/54
f 66/73/55 76/84/55 77/85/55 67/74/55
f 67/74/56 77/85/56 78/86/56 68/75/56
f 68/75/8 78/86/8 79/87/8 69/76/8
f 69/76/57 79/87/57 80/88/57 70/77/57
f 70/77/58 80/88/58 71/78/58 61/67/58
f 71/78/59 81/89/59 82/90/59 72/79/59
f 72/79/60 82/90/60 83/91/60 73/80/60
f 73/80/3 83/91/3 84/92/3 74/81/3
f 74/81/61 84/92/61 85/93/61 75/82/61
f 75/83/62 85/94/62 86/95/62 76/84/62
f 76/84/63 86/95/63 87/96/63 77/85/63
f 77/85/64 87/96/64 88/97/64 78/86/64
f 78/86/8 88/97/8 89/98/8 79/87/8
f 79/87/65 89/98/65 90/99/65 80/88/65
f 80/88/66 90/99/66 81/89/66 71/78/66
f 81/89/67 91/100/67 92/101/67 82/90/67
f 82/90/68 92/101/68 93/102/68 83/91/68
f 83/91/3 93/102/3 94/103/3 84/92/3
f 84/92/69 94/103/69 95/104/69 85/93/69
f 85/94/70 95/105/70 96/106/70 86/95/70
f 86/95/71 96/106/71 97/107/71 87/96/71
f 87/96/72 97/107/72 98/108/72 88/97/72
f 88/97/8 98/108/8 99/109/8 89/98/8
f 89/98/73 99/109/73 100/110/73 90/99/73
f 90/99/74 100/110/74 91/100/74 81/89/74
f 91/100/75 101/111/75 102/112/75 92/101/75
f 92/101/76 102/112/76 103/113/76 93/102/76
f 93/102/3 103/113/3 104/114/3 94/103/3
f 94/103/77 104/114/77 105/115/77 95/104/77
f 95/105/78 105/116/78 106/117/78 96/106/78
f 96/106/79 106/117/79 107/118/79 97/107/79
f 97/107/80 107/118/80 108/119/80 98/108/80
f 98/108/8 108/119/8 109/120/8 99/109/8
f 99/109/81 109/120/81 110/121/81 100/110/81
f 100/110/82 110/121/82 101/111/82 91/100/82
f 101/111/83 111/122/83 112/123/83 102/112/83
f 102/112/84 112/123/84 113/124/84 103/113/84
f 103/113/3 113/124/3 114/125/3 104/114/3
f 104/114/85 114/125/85 115/126/85 105/115/85
f 105/116/86 115/127/86 116/128/86 106/117/86
f 106/117/87 116/128/87 117/129/87 107/118/87
f 107/118/88 117/129/88 118/130/88 108/119/88
f 108/119/8 118/130/8 119/131/8 109/120/8
f 109/120/89 119/131/89 120/132/89 110/121/89
f 110/121/90 120/132/90 111/122/90 101/111/90
f 111/122/91 121/133/91 122/134/91 112/123/91
f 112/123/92 122/134/92 123/135/92 113/124/92
f 113/124/3 123/135/3 124/136/3 114/125/3
f 114/125/93 124/136/93 125/137/93 115/126/93
f 115/127/94 125/138/94 126/139/94 116/128/94
f 116/128/95 126/139/95 127/140/95 117/129/95
f 117/129/96 127/140/96 128/141/96 118/130/96
f 118/130/8 128/141/8 129/142/8 119/131/8
f 119/131/97 129/142/97 130/143/97 120/132/97
f 120/132/98 130/143/98 121/133/98 111/122/98
f 121/133/99 131/144/99 132/145/99 122/134/99
f 122/134/100 132/145/100 133/146/100 123/135/100
f 123/135/3 133/146/3 134/147/3 124/136/3
f 124/136/101 134/147/101 135/148/101 125/137/101
f 125/138/102 135/149/102 136/150/102 126/139/102
f 126/139/103 136/150/103 137/151/103 127/140/103
f 127/140/104 137/151/104 138/152/104 128/141/104
f 128/141/8 138/152/8 139/153/8 129/142/8
f 129/142/105 139/153/105 140/154/105 130/143/105
f 130/143/106 140/154/106 131/144/106 121/133/106
f 131/144/107 141/155/107 142/156/107 132/145/107
f 132/145/108 142/156/108 143/157/108 133/146/108
f 133/146/3 143/157/3 144/158/3 134/147/3
f 134/147/109 144/158/109 145/159/109 135/148/109
f 135/149/110 145/160/110 146/161/110 136/150/110
f 136/150/111 146/161/111 147/162/111 137/151/111
f 137/151/112 147/162/112 148/163/112 138/152/112
f 138/152/8 148/163/8 149/164/8 139/153/8
f 139/153/113 149/164/113 150/165/113 140/154/113
f 140/154/114 150/165/114 141/155/114 131/144/114
f 141/155/115 151/166/115 152/167/115 142/156/115
f 142/156/116 152/167/116 153/168/116 143/157/116
f 143/157/3 153/168/3 154/169/3 144/158/3
f 144/158/117 154/169/117 155/170/117 145/159/117
f 145/160/118 155/171/118 156/172/118 146/161/118
f 146/161/119 156/172/119 157/173/119 147/162/119
f 147/162/120 157/173/120 158/174/120 148/163/120
f 148/163/8 158/174/8 159/175/8 149/164/8
f 149/164/121 159/175/121 160/176/121 150/165/121
f 150/165/122 160/176/122 151/166/122 141/155/122
f 151/166/123 161/177/123 162/178/123 152/167/123
f 152/167/124 162/178/124 163/179/124 153/168/124
f 153/168/3 163/179/3 164/180/3 154/169/3
f 154/169/125 164/180/125 165/181/125 155/170/125
f 155/171/126 165/182/126 166/183/126 156/172/126
f 156/172/127 166/183/127 167/184/127 157/173/127
f 157/173/128 167/184/128 168/185/128 158/174/128
f 158/174/8 168/185/8 169/186/8 159/175/8
f 159/175/129 169/186/129 170/187/129 160/176/129
f 160/176/130 170/187/130 161/177/130 151/166/130
f 161/177/131 171/188/131 172/189/131 162/178/131
f 162/178/132 172/189/132 173/190/132 163/179/132
f 163/179/3 173/190/3 174/191/3 164/180/3
f 164/180/133 174/191/133 175/192/133 165/181/133
f 165/182/134 175/193/134 176/194/134 166/183/134
f 166/183/135 176/194/135 177/195/135 167/184/135
f 167/184/136 177/195/136 178/196/136 168/185/136
f 168/185/8 178/196/8 179/197/8 169/186/8
f 169/186/137 179/197/137 180/198/137 170/187/137
f 170/187/138 180/198/138 171/188/138 161/177/138
f 171/188/139 181/199/139 182/200/139 172/189/139
f 172/189/140 182/200/140 183/201/140 173/190/140
f 173/190/3 183/201/3 184/202/3 174/191/3
f 174/191/141 184/202/141 185/203/141 175/192/141
f 175/193/142 185/204/142 186/205/142 176/194/142
f 176/194/143 186/205/143 187/206/143 177/195/143
f 177/195/144 187/206/144 188/207/144 178/196/144
f 178/196/8 188/207/8 189/208/8 179/197/8
f 179/197/145 189/208/145 190/209/145 180/198/145
f 180/198/146 190/209/146 181/199/146 171/188/146
f 181/199/147 191/210/147 192/211/147 182/200/147
f 182/200/148 192/211/148 193/212/148 183/201/148
f 183/201/3 193/212/3 194/213/3 184/202/3
f 184/202/149 194/213/149 195/214/149 185/203/149
f 185/204/150 195/215/150 196/216/150 186/205/150
f 186/205/151 196/216/151 197/217/151 187/206/151
f 187/206/152 197/217/152 198/218/152 188/207/152
f 188/207/8 198/218/8 199/219/8 189/208/8
f 189/208/153 199/219/153 200/220/153 190/209/153
f 190/209/154 200/220/154 191/210/154 181/199/154
f 191/221/155 201/222/155 202/223/155 192/224/155
f 192/224/156 202/223/156 203/225/156 193/226/156
f 193/226/3 203/225/3 204/227/3 194/228/3
f 194/228/157 204/227/157 205/229/157 195/230/157
f 195/231/158 205/232/158 206/233/158 196/234/158
f 196/234/159 206/233/159 207/235/159 197/236/159
f 197/236/160 207/235/160 208/237/160 198/238/160
f 198/238/8 208/237/8 209/239/8 199/240/8
f 199/240/161 209/239/161 210/241/161 200/242/161
f 200/242/162 210/241/162 201/222/162 191/221/162
f 201/222/5 211/243/5 212/244/5 202/223/5
f 202/223/4 212/244/4 213/245/4 203/225/4
f 203/225/3 213/245/3 214/246/3 204/227/3
f 204/227/2 214/246/2 215/247/2 205/229/2
f 205/232/1 215/248/1 216/249/1 206/233/1
f 206/233/10 216/249/10 217/250/10 207/235/10
f 207/235/9 217/250/9 218/251/9 208/237/9
f 208/237/8 218/251/8 219/252/8 209/239/8
f 209/239/7 219/252/7 220/253/7 210/241/7
f 210/241/6 220/253/6 211/243/6 201/222/6
f 211/243/14 221/254/14 222/255/14 212/244/14
f 212/244/13 222/255/13 223/256/13 213/245/13
f 213/245/3 223/256/3 224/257/3 214/246/3
f 214/246/12 224/257/12 225/258/12 215/247/12
f 215/248/11 225/259/11 226/260/11 216/249/11
f 216/249/18 226/260/18 227/261/18 217/250/18
f 217/250/17 227/261/17 228/262/17 218/251/17
f 218/251/8 228/262/8 229/263/8 219/252/8
f 219/252/16 229/263/16 230/264/16 220/253/16
f 220/253/15 230/264/15 221/254/15 211/243/15
f 221/254/22 231/265/22 232/266/22 222/255/22
f 222/255/21 232/266/21 233/267/21 223/256/21
f 223/256/3 233/267/3 234/268/3 224/257/3
f 224/257/20 234/268/20 235/269/20 225/258/20
f 225/259/19 235/270/19 236/271/19 226/260/19
f 226/260/26 236/271/26 237/272/26 227/261/26
f 227/261/25 237/272/25 238/273/25 228/262/25
f 228/262/8 238/273/8 239/274/8 229/263/8
f 229/263/24 239/274/24 240/275/24 230/264/24
f 230/264/23 240/275/23 231/265/23 221/254/23
f 231/265/30 241/276/30 242/277/30 232/266/30
f 232/266/29 242/277/29 243/278/29 233/267/29
f 233/267/3 243/278/3 244/279/3 234/268/3
f 234/268/28 244/279/28 245/280/28 235/269/28
f 235/270/27 245/281/27 246/282/27 236/271/27
f 236/271/34 246/282/34 247/283/34 237/272/34
f 237/272/33 247/283/33 248/284/33 238/273/33
f 238/273/8 248/284/8 249/285/8 239/274/8
f 239/274/32 249/285/32 250/286/32 240/275/32
f 240/275/31 250/286/31 241/276/31 231/265/31
f 241/276/38 251/287/38 252/288/38 242/277/38
f 242/277/37 252/288/37 253/289/37 243/278/37
f 243/278/3 253/289/3 254/290/3 244/279/3
f 244/279/36 254/290/36 255/291/36 245/280/36
f 245/281/35 255/292/35 256/293/35 246/282/35
f 246/282/42 256/293/42 257/294/42 247/283/42
f 247/283/41 257/294/41 258/295/41 248/284/41
f 248/284/8 258/295/8 259/296/8 249/285/8
f 249/285/163 259/296/163 260/297/163 250/286/163
f 250/286/39 260/297/39 251/287/39 241/276/39
f 251/287/46 261/298/46 262/299/46 252/288/46
f 252/288/164 262/299/164 263/300/164 253/289/164
f 253/289/3 263/300/3 264/301/3 254/290/3
f 254/290/44 264/301/44 265/302/44 255/291/44
f 255/292/43 265/303/43 266/304/43 256/293/43
f 256/293/50 266/304/50 267/305/50 257/294/50
f 257/294/49 267/305/49 268/306/49 258/295/49
f 258/295/8 268/306/8 269/307/8 259/296/8
f 259/296/165 269/307/165 270/308/165 260/297/165
f 260/297/47 270/308/47 261/298/47 251/287/47
f 261/298/166 271/309/166 272/310/166 262/299/166
f 262/299/53 272/310/53 273/311/53 263/300/53
f 263/300/3 273/311/3 274/312/3 264/301/3
f 264/301/52 274/312/52 275/313/52 265/302/52
f 265/303/167 275/314/167 276/315/167 266/304/167
f 266/304/168 276/315/168 277/316/168 267/305/168
f 267/305/57 277/316/57 278/317/57 268/306/57
f 268/306/8 278/317/8 279/318/8 269/307/8
f 269/307/56 279/318/56 280/319/56 270/308/56
f 270/308/169 280/319/169 271/309/169 261/298/169
f 271/309/62 281/320/62 282/321/62 272/310/62
f 272/310/61 282/321/61 283/322/61 273/311/61
f 273/311/3 283/322/3 284/323/3 274/312/3
f 274/312/60 284/323/60 285/324/60 275/313/60
f 275/314/59 285/325/59 286/326/59 276/315/59
f 276/315/66 286/326/66 287/327/66 277/316/66
f 277/316/65 287/327/65 288/328/65 278/317/65
f 278/317/8 288/328/8 289/329/8 279/318/8
f 279/318/64 289/329/64 290/330/64 280/319/64
f 280/319/63 290/330/63 281/320/63 271/309/63
f 281/320/170 291/331/170 292/332/170 282/321/170
f 282/321/69 292/332/69 293/333/69 283/322/69
f 283/322/3 293/333/3 294/334/3 284/323/3
f 284/323/68 294/334/68 295/335/68 285/324/68
f 285/325/171 295/336/171 296/337/171 286/326/171
f 286/326/172 296/337/172 297/338/172 287/327/172
f 287/327/73 297/338/73 298/339/73 288/328/73
f 288/328/8 298/339/8 299/340/8 289/329/8
f 289/329/72 299/340/72 300/341/72 290/330/72
f 290/330/173 300/341/173 291/331/173 281/320/173
f 291/331/78 301/342/78 302/343/78 292/332/78
f 292/332/77 302/343/77 303/344/77 293/333/77
f 293/333/3 303/344/3 304/345/3 294/334/3
f 294/334/76 304/345/76 305/346/76 295/335/76
f 295/336/75 305/347/75 306/348/75 296/337/75
f 296/337/82 306/348/82 307/349/82 297/338/82
f 297/338/81 307/349/81 308/350/81 298/339/81
f 298/339/8 308/350/8 309/351/8 299/340/8
f 299/340/80 309/351/80 310/352/80 300/341/80
f 300/341/79 310/352/79 301/342/79 291/331/79
f 301/342/86 311/353/86 312/354/86 302/343/86
f 302/343/85 312/354/85 313/355/85 303/344/85
f 303/344/3 313/355/3 314/356/3 304/345/3
f 304/345/84 314/356/84 315/357/84 305/346/84
f 305/347/83 315/358/83 316/359/83 306/348/83
f 306/348/90 316/359/90 317/360/90 307/349/90
f 307/349/89 317/360/89 318/361/89 308/350/89
f 308/350/8 318/361/8 319/362/8 309/351/8
f 309/351/88 319/362/88 320/363/88 310/352/88
f 310/352/87 320/363/87 311/353/87 301/342/87
f 311/353/174 321/364/174 322/365/174 312/354/174
f 312/354/93 322/365/93 323/366/93 313/355/93
f 313/355/3 323/366/3 324/367/3 314/356/3
f 314/356/92 324/367/92 325/368/92 315/357/92
f 315/358/175 325/369/175 326/370/175 316/359/175
f 316/359/176 326/370/176 327/371/176 317/360/176
f 317/360/97 327/371/97 328/372/97 318/361/97
f 318/361/8 328/372/8 329/373/8 319/362/8
f 319/362/96 329/373/96 330/374/96 320/363/96
f 320/363/177 330/374/177 321/364/177 311/353/177
f 321/364/102 331/375/102 332/376/102 322/365/102
f 322/365/101 332/376/101 333/377/101 323/366/101
f 323/366/3 333/377/3 334/378/3 324/367/3
f 324/367/100 334/378/100 335/379/100 325/368/100
f 325/369/99 335/380/99 336/381/99 326/370/99
f 326/370/106 336/381/106 337/382/106 327/371/106
f 327/371/105 337/382/105 338/383/105 328/372/105
f 328/372/8 338/383/8 339/384/8 329/373/8
f 329/373/104 339/384/104 340/385/104 330/374/104
f 330/374/103 340/385/103 331/375/103 321/364/103
f 331/375/110 341/386/110 342/387/110 332/376/110
f 332/376/109 342/387/109 343/388/109 333/377/109
f 333/377/3 343/388/3 344/389/3 334/378/3
f 334/378/108 344/389/108 345/390/108 335/379/108
f 335/380/178 345/391/178 346/392/178 336/381/178
f 336/381/179 346/392/179 347/393/179 337/382/179
f 337/382/113 347/393/113 348/394/113 338/383/113
f 338/383/8 348/394/8 349/395/8 339/384/8
f 339/384/112 349/395/112 350/396/112 340/385/112
f 340/385/111 350/396/111 341/386/111 331/375/111
f 341/386/118 351/397/118 352/398/118 342/387/118
f 342/387/117 352/398/117 353/399/117 343/388/117
f 343/388/3 353/399/3 354/400/3 344/389/3
f 344/389/180 354/400/180 355/401/180 345/390/180
f 345/391/115 355/402/115 356/403/115 346/392/115
f 346/392/122 356/403/122 357/404/122 347/393/122
f 347/393/181 357/404/181 358/405/181 348/394/181
f 348/394/8 358/405/8 359/406/8 349/395/8
f 349/395/120 359/406/120 360/407/120 350/396/120
f 350/396/119 360/407/119 351/397/119 341/386/119
f 351/397/126 361/408/126 362/409/126 352/398/126
f 352/398/182 362/409/182 363/410/182 353/399/182
f 353/399/3 363/410/3 364/411/3 354/400/3
f 354/400/183 364/411/183 365/412/183 355/401/183
f 355/402/123 365/413/123 366/414/123 356/403/123
f 356/403/130 366/414/130 367/415/130 357/404/130
f 357/404/129 367/415/129 368/416/129 358/405/129
f 358/405/8 368/416/8 369/417/8 359/406/8
f 359/406/184 369/417/184 370/418/184 360/407/184
f 360/407/127 370/418/127 361/408/127 351/397/127
f 361/408/134 371/419/134 372/420/134 362/409/134
f 362/409/133 372/420/133 373/421/133 363/410/133
f 363/410/3 373/421/3 374/422/3 364/411/3
f 364/411/132 374/422/132 375/423/132 365/412/132
f 365/413/131 375/424/131 376/425/131 366/414/131
f 366/414/138 376/425/138 377/426/138 367/415/138
f 367/415/137 377/426/137 378/427/137 368/416/137
f 368/416/8 378/427/8 379/428/8 369/417/8
f 369/417/136 379/428/136 380/429/136 370/418/136
f 370/418/135 380/429/135 371/419/135 361/408/135
f 371/419/142 381/430/142 382/431/142 372/420/142
f 372/420/141 382/431/141 383/432/141 373/421/141
f 373/421/3 383/432/3 384/433/3 374/422/3
f 374/422/140 384/433/140 385/434/140 375/423/140
f 375/424/139 385/435/139 386/436/139 376/425/139
f 376/425/146 386/436/146 387/437/146 377/426/146
f 377/426/145 387/437/145 388/438/145 378/427/145
f 378/427/8 388/438/8 389/439/8 379/428/8
f 379/428/144 389/439/144 390/440/144 380/429/144
f 380/429/143 390/440/143 381/430/143 371/419/143
f 381/430/150 391/441/150 392/442/150 382/431/150
f 382/431/149 392/442/149 393/443/149 383/432/149
f 383/432/3 393/443/3 394/444/3 384/433/3
f 384/433/148 394/444/148 395/445/148 385/434/148
f 385/435/147 395/446/147 396/447/147 386/436/147
f 386/436/154 396/447/154 397/448/154 387/437/154
f 387/437/153 397/448/153 398/449/153 388/438/153
f 388/438/8 398/449/8 399/450/8 389/439/8
f 389/439/152 399/450/152 400/451/152 390/440/152
f 390/440/151 400/451/151 391/441/151 381/430/151
f 391/441/158 1/1/158 2/4/158 392/442/158
f 392/442/157 2/4/157 3/6/157 393/443/157
f 393/443/3 3/6/3 4/8/3 394/444/3
f 394/444/156 4/8/156 5/10/156 395/445/156
f 395/446/155 5/11/155 6/14/155 396/447/155
f 396/447/162 6/14/162 7/16/162 397/448/162
f 397/448/161 7/16/161 8/18/161 398/449/161
f 398/449/8 8/18/8 9/20/8 399/450/8
f 399/450/160 9/20/160 10/22/160 400/451/160
f 400/451/159 10/22/159 1/1/159 391/441/159
