# Blender 5.1.2
# www.blender.org
o Cylinder
v 1.000000 -0.000000 -1.000000
v 1.000000 0.000000 1.000000
v 0.980785 -0.195090 -1.000000
v 0.980785 -0.195090 1.000000
v 0.923880 -0.382684 -1.000000
v 0.923880 -0.382683 1.000000
v 0.831470 -0.555570 -1.000000
v 0.831470 -0.555570 1.000000
v 0.707107 -0.707107 -1.000000
v 0.707107 -0.707107 1.000000
v 0.555570 -0.831470 -1.000000
v 0.555570 -0.831470 1.000000
v 0.382683 -0.923880 -1.000000
v 0.382683 -0.923879 1.000000
v 0.195090 -0.980785 -1.000000
v 0.195090 -0.980785 1.000000
v -0.000000 -1.000000 -1.000000
v 0.000000 -1.000000 1.000000
v -0.195090 -0.980785 -1.000000
v -0.195090 -0.980785 1.000000
v -0.382683 -0.923880 -1.000000
v -0.382683 -0.923879 1.000000
v -0.555570 -0.831470 -1.000000
v -0.555570 -0.831470 1.000000
v -0.707107 -0.707107 -1.000000
v -0.707107 -0.707107 1.000000
v -0.831470 -0.555570 -1.000000
v -0.831470 -0.555570 1.000000
v -0.923880 -0.382684 -1.000000
v -0.923880 -0.382683 1.000000
v -0.980785 -0.195090 -1.000000
v -0.980785 -0.195090 1.000000
v -1.000000 -0.000000 -1.000000
v -1.000000 0.000000 1.000000
v 1.162361 -0.059540 1.008727
v 1.162361 -0.059540 -1.008727
v 1.156401 -0.120054 -1.008727
v 1.156401 -0.120054 1.008727
v 1.089306 -0.341237 -1.008727
v 1.089306 -0.341236 1.008727
v 0.980349 -0.545080 -1.008727
v 0.980349 -0.545080 1.008727
v 0.833718 -0.723750 -1.008727
v 0.833718 -0.723750 1.008727
v 0.655048 -0.870380 -1.008726
v 0.655048 -0.870380 1.008727
v 0.451205 -0.979337 -1.008726
v 0.451205 -0.979337 1.008727
v 0.230022 -1.046432 -1.008726
v 0.230022 -1.046432 1.008727
v -0.000000 -1.069087 -1.008726
v -0.000000 -1.069087 1.008727
v -0.230022 -1.046432 -1.008726
v -0.230022 -1.046432 1.008727
v -0.451205 -0.979337 -1.008726
v -0.451205 -0.979337 1.008727
v -0.655048 -0.870380 -1.008726
v -0.655048 -0.870380 1.008727
v -0.833718 -0.723750 -1.008727
v -0.833718 -0.723750 1.008727
v -0.980349 -0.545080 -1.008727
v -0.980349 -0.545080 1.008727
v -1.089306 -0.341237 -1.008727
v -1.089306 -0.341236 1.008727
v -1.156401 -0.120054 -1.008727
v -1.156401 -0.120054 1.008727
v -1.162361 -0.059540 -1.008727
v -1.162361 -0.059540 1.008727
vn 0.9952 -0.0980 -0.0000
vn 0.9569 -0.2903 -0.0000
vn 0.8819 -0.4714 -0.0000
vn 0.7730 -0.6344 -0.0000
vn 0.6344 -0.7730 -0.0000
vn 0.4714 -0.8819 -0.0000
vn 0.2903 -0.9569 -0.0000
vn 0.0980 -0.9952 -0.0000
vn -0.0980 -0.9952 -0.0000
vn -0.2903 -0.9569 -0.0000
vn -0.4714 -0.8819 -0.0000
vn -0.6344 -0.7730 -0.0000
vn -0.7730 -0.6344 -0.0000
vn -0.8819 -0.4714 -0.0000
vn -0.9569 -0.2903 -0.0000
vn -0.9952 -0.0980 -0.0000
vn 0.3443 0.9389 -0.0000
vn -0.0518 0.0051 -0.9986
vn -0.0518 0.0051 0.9986
vn -0.0570 0.0173 -0.9982
vn -0.0570 0.0173 0.9982
vn -0.0608 0.0325 -0.9976
vn -0.0608 0.0325 0.9976
vn -0.0620 0.0509 -0.9968
vn -0.0620 0.0509 0.9968
vn -0.0592 0.0721 -0.9956
vn -0.0591 0.0721 0.9956
vn -0.0504 0.0942 -0.9943
vn -0.0504 0.0942 0.9943
vn -0.0345 0.1136 -0.9929
vn -0.0345 0.1136 0.9929
vn -0.0123 0.1253 -0.9920
vn -0.0123 0.1253 0.9920
vn 0.0123 0.1253 -0.9920
vn 0.0123 0.1253 0.9920
vn 0.0345 0.1136 -0.9929
vn 0.0345 0.1136 0.9929
vn 0.0504 0.0942 -0.9943
vn 0.0504 0.0942 0.9943
vn 0.0591 0.0721 -0.9956
vn 0.0592 0.0721 0.9956
vn 0.0620 0.0509 -0.9968
vn 0.0620 0.0509 0.9968
vn 0.0608 0.0325 -0.9976
vn 0.0608 0.0325 0.9976
vn 0.0570 0.0173 -0.9982
vn 0.0570 0.0173 0.9982
vn 0.0518 0.0051 -0.9986
vn 0.0518 0.0051 0.9986
vn -0.3443 0.9389 -0.0000
vn 0.9569 0.2903 -0.0000
vn -0.0591 0.0721 -0.9956
vn -0.0592 0.0721 0.9956
vn 0.0592 0.0721 -0.9956
vn 0.0591 0.0721 0.9956
vn -0.9952 0.0980 -0.0000
vn -0.9569 0.2903 -0.0000
vn -0.8819 0.4714 -0.0000
vn -0.7730 0.6344 -0.0000
vn -0.6344 0.7730 -0.0000
vn -0.4714 0.8819 -0.0000
vn -0.2903 0.9569 -0.0000
vn -0.0980 0.9952 -0.0000
vn 0.0980 0.9952 -0.0000
vn 0.2903 0.9569 -0.0000
vn 0.4714 0.8819 -0.0000
vn 0.6344 0.7730 -0.0000
vn 0.7730 0.6344 -0.0000
vn 0.8819 0.4714 -0.0000
vn 0.9952 0.0980 -0.0000
vt 0.726971 0.963884
vt 0.718750 0.536116
vt 0.726971 0.536116
vt 0.718750 0.963884
vt 0.687500 0.536116
vt 0.687500 0.963884
vt 0.656250 0.536116
vt 0.656250 0.963884
vt 0.625000 0.536116
vt 0.625000 0.963884
vt 0.593750 0.536116
vt 0.593750 0.963884
vt 0.562500 0.536116
vt 0.562500 0.963884
vt 0.531250 0.536116
vt 0.531250 0.963884
vt 0.500000 0.536116
vt 0.500000 0.963884
vt 0.468750 0.536116
vt 0.468750 0.963884
vt 0.437500 0.536116
vt 0.437500 0.963884
vt 0.406250 0.536116
vt 0.406250 0.963884
vt 0.375000 0.536116
vt 0.375000 0.963884
vt 0.343750 0.536116
vt 0.343750 0.963884
vt 0.312500 0.536116
vt 0.312500 0.963884
vt 0.281250 0.536116
vt 0.281250 0.963884
vt 0.273029 0.536116
vt 0.750000 1.000000
vt 0.750000 0.500000
vt 0.718750 1.000000
vt 0.718750 0.500000
vt 0.687500 1.000000
vt 0.687500 0.500000
vt 0.656250 1.000000
vt 0.656250 0.500000
vt 0.625000 1.000000
vt 0.625000 0.500000
vt 0.593750 1.000000
vt 0.593750 0.500000
vt 0.562500 1.000000
vt 0.562500 0.500000
vt 0.531250 1.000000
vt 0.531250 0.500000
vt 0.500000 1.000000
vt 0.468750 0.500000
vt 0.500000 0.500000
vt 0.468750 1.000000
vt 0.437500 0.500000
vt 0.437500 1.000000
vt 0.406250 0.500000
vt 0.406250 1.000000
vt 0.375000 0.500000
vt 0.375000 1.000000
vt 0.343750 0.500000
vt 0.343750 1.000000
vt 0.312500 0.500000
vt 0.312500 1.000000
vt 0.281250 0.500000
vt 0.281250 1.000000
vt 0.250000 0.500000
vt 0.250000 1.000000
vt 0.273029 0.963884
s 0
f 35/1/1 37/2/1 36/3/1
f 38/4/2 39/5/2 37/2/2
f 40/6/3 41/7/3 39/5/3
f 42/8/4 43/9/4 41/7/4
f 44/10/5 45/11/5 43/9/5
f 46/12/6 47/13/6 45/11/6
f 48/14/7 49/15/7 47/13/7
f 50/16/8 51/17/8 49/15/8
f 52/18/9 53/19/9 51/17/9
f 54/20/10 55/21/10 53/19/10
f 56/22/11 57/23/11 55/21/11
f 58/24/12 59/25/12 57/23/12
f 60/26/13 61/27/13 59/25/13
f 62/28/14 63/29/14 61/27/14
f 64/30/15 65/31/15 63/29/15
f 66/32/16 67/33/16 65/31/16
f 36/3/17 2/34/17 35/1/17
f 37/2/18 1/35/18 36/3/18
f 38/4/19 2/34/19 4/36/19
f 39/5/20 3/37/20 37/2/20
f 40/6/21 4/36/21 6/38/21
f 41/7/22 5/39/22 39/5/22
f 42/8/23 6/38/23 8/40/23
f 43/9/24 7/41/24 41/7/24
f 44/10/25 8/40/25 10/42/25
f 45/11/26 9/43/26 43/9/26
f 46/12/27 10/42/27 12/44/27
f 47/13/28 11/45/28 45/11/28
f 48/14/29 12/44/29 14/46/29
f 49/15/30 13/47/30 47/13/30
f 50/16/31 14/46/31 16/48/31
f 51/17/32 15/49/32 49/15/32
f 52/18/33 16/48/33 18/50/33
f 51/17/34 19/51/34 17/52/34
f 52/18/35 20/53/35 54/20/35
f 53/19/36 21/54/36 19/51/36
f 54/20/37 22/55/37 56/22/37
f 55/21/38 23/56/38 21/54/38
f 56/22/39 24/57/39 58/24/39
f 57/23/40 25/58/40 23/56/40
f 58/24/41 26/59/41 60/26/41
f 59/25/42 27/60/42 25/58/42
f 60/26/43 28/61/43 62/28/43
f 61/27/44 29/62/44 27/60/44
f 62/28/45 30/63/45 64/30/45
f 63/29/46 31/64/46 29/62/46
f 64/30/47 32/65/47 66/32/47
f 65/31/48 33/66/48 31/64/48
f 66/32/49 34/67/49 68/68/49
f 68/68/50 33/66/50 67/33/50
f 31/64/51 32/65/51 30/63/51
f 35/1/1 38/4/1 37/2/1
f 38/4/2 40/6/2 39/5/2
f 40/6/3 42/8/3 41/7/3
f 42/8/4 44/10/4 43/9/4
f 44/10/5 46/12/5 45/11/5
f 46/12/6 48/14/6 47/13/6
f 48/14/7 50/16/7 49/15/7
f 50/16/8 52/18/8 51/17/8
f 52/18/9 54/20/9 53/19/9
f 54/20/10 56/22/10 55/21/10
f 56/22/11 58/24/11 57/23/11
f 58/24/12 60/26/12 59/25/12
f 60/26/13 62/28/13 61/27/13
f 62/28/14 64/30/14 63/29/14
f 64/30/15 66/32/15 65/31/15
f 66/32/16 68/68/16 67/33/16
f 36/3/17 1/35/17 2/34/17
f 37/2/18 3/37/18 1/35/18
f 38/4/19 35/1/19 2/34/19
f 39/5/20 5/39/20 3/37/20
f 40/6/21 38/4/21 4/36/21
f 41/7/22 7/41/22 5/39/22
f 42/8/23 40/6/23 6/38/23
f 43/9/24 9/43/24 7/41/24
f 44/10/25 42/8/25 8/40/25
f 45/11/52 11/45/52 9/43/52
f 46/12/53 44/10/53 10/42/53
f 47/13/28 13/47/28 11/45/28
f 48/14/29 46/12/29 12/44/29
f 49/15/30 15/49/30 13/47/30
f 50/16/31 48/14/31 14/46/31
f 51/17/32 17/52/32 15/49/32
f 52/18/33 50/16/33 16/48/33
f 51/17/34 53/19/34 19/51/34
f 52/18/35 18/50/35 20/53/35
f 53/19/36 55/21/36 21/54/36
f 54/20/37 20/53/37 22/55/37
f 55/21/38 57/23/38 23/56/38
f 56/22/39 22/55/39 24/57/39
f 57/23/54 59/25/54 25/58/54
f 58/24/55 24/57/55 26/59/55
f 59/25/42 61/27/42 27/60/42
f 60/26/43 26/59/43 28/61/43
f 61/27/44 63/29/44 29/62/44
f 62/28/45 28/61/45 30/63/45
f 63/29/46 65/31/46 31/64/46
f 64/30/47 30/63/47 32/65/47
f 65/31/48 67/33/48 33/66/48
f 66/32/49 32/65/49 34/67/49
f 68/68/50 34/67/50 33/66/50
f 2/34/56 1/35/56 3/37/56
f 2/34/56 3/37/56 4/36/56
f 3/37/57 5/39/57 4/36/57
f 4/36/57 5/39/57 6/38/57
f 5/39/58 7/41/58 6/38/58
f 6/38/58 7/41/58 8/40/58
f 7/41/59 9/43/59 8/40/59
f 8/40/59 9/43/59 10/42/59
f 9/43/60 11/45/60 10/42/60
f 10/42/60 11/45/60 12/44/60
f 11/45/61 13/47/61 12/44/61
f 12/44/61 13/47/61 14/46/61
f 13/47/62 15/49/62 14/46/62
f 14/46/62 15/49/62 16/48/62
f 15/49/63 17/52/63 16/48/63
f 16/48/63 17/52/63 18/50/63
f 17/52/64 19/51/64 18/50/64
f 18/50/64 19/51/64 20/53/64
f 19/51/65 21/54/65 20/53/65
f 20/53/65 21/54/65 22/55/65
f 21/54/66 23/56/66 22/55/66
f 22/55/66 23/56/66 24/57/66
f 23/56/67 25/58/67 24/57/67
f 24/57/67 25/58/67 26/59/67
f 25/58/68 27/60/68 26/59/68
f 26/59/68 27/60/68 28/61/68
f 27/60/69 29/62/69 28/61/69
f 31/64/70 33/66/70 34/67/70
f 28/61/69 29/62/69 30/63/69
f 29/62/51 31/64/51 30/63/51
f 31/64/70 34/67/70 32/65/70
